<svg xmlns="http://www.w3.org/2000/svg" xmlns:xlink="http://www.w3.org/1999/xlink" width="1080" zoomAndPan="magnify" viewBox="0 0 810 809.999993" height="1080" preserveAspectRatio="xMidYMid meet" version="1.0"><defs><clipPath id="618d73527c"><path d="M 2 45.65625 L 808 45.65625 L 808 764.15625 L 2 764.15625 Z M 2 45.65625 " clip-rule="nonzero"/></clipPath></defs><g clip-path="url(#618d73527c)"><path fill="#ffffff" d="M 783.34375 422.472656 C 779.839844 422.460938 776.484375 421.742188 773.28125 420.316406 L 562.347656 326.078125 C 561.277344 325.59375 560.246094 325.035156 559.253906 324.402344 C 558.261719 323.769531 557.320312 323.070312 556.429688 322.304688 C 555.539062 321.535156 554.707031 320.710938 553.933594 319.824219 C 553.164062 318.9375 552.457031 318 551.820312 317.011719 C 551.183594 316.023438 550.617188 314.996094 550.128906 313.925781 C 549.636719 312.859375 549.226562 311.761719 548.894531 310.632812 C 548.5625 309.503906 548.3125 308.359375 548.144531 307.195312 C 547.976562 306.03125 547.890625 304.863281 547.890625 303.6875 C 547.890625 302.511719 547.976562 301.339844 548.144531 300.175781 C 548.3125 299.011719 548.5625 297.867188 548.894531 296.738281 C 549.226562 295.613281 549.636719 294.511719 550.128906 293.445312 C 550.617188 292.375 551.183594 291.347656 551.820312 290.359375 C 552.457031 289.371094 553.164062 288.433594 553.933594 287.546875 C 554.707031 286.660156 555.539062 285.835938 556.429688 285.066406 C 557.320312 284.300781 558.261719 283.601562 559.253906 282.96875 C 560.246094 282.335938 561.277344 281.777344 562.347656 281.292969 L 773.28125 187.414062 C 774.019531 187.089844 774.765625 186.800781 775.53125 186.546875 C 776.292969 186.292969 777.066406 186.078125 777.851562 185.902344 C 778.636719 185.726562 779.429688 185.585938 780.226562 185.488281 C 781.023438 185.386719 781.824219 185.328125 782.628906 185.304688 C 783.433594 185.285156 784.238281 185.304688 785.039062 185.359375 C 785.839844 185.417969 786.640625 185.515625 787.433594 185.648438 C 788.226562 185.785156 789.007812 185.957031 789.785156 186.171875 C 790.5625 186.382812 791.324219 186.632812 792.074219 186.917969 C 792.828125 187.207031 793.5625 187.527344 794.28125 187.886719 C 795.003906 188.246094 795.703125 188.640625 796.382812 189.066406 C 797.066406 189.496094 797.726562 189.953125 798.363281 190.445312 C 798.996094 190.9375 799.609375 191.460938 800.195312 192.011719 C 800.78125 192.5625 801.335938 193.140625 801.863281 193.746094 C 802.394531 194.355469 802.890625 194.984375 803.359375 195.640625 C 803.824219 196.292969 804.257812 196.96875 804.660156 197.667969 C 805.0625 198.363281 805.425781 199.078125 805.757812 199.8125 C 806.082031 200.546875 806.367188 201.292969 806.613281 202.054688 C 806.863281 202.820312 807.074219 203.589844 807.25 204.371094 C 807.421875 205.15625 807.558594 205.945312 807.652344 206.738281 C 807.75 207.535156 807.808594 208.335938 807.828125 209.136719 C 807.84375 209.9375 807.824219 210.738281 807.765625 211.535156 C 807.707031 212.335938 807.605469 213.128906 807.46875 213.917969 C 807.332031 214.710938 807.15625 215.492188 806.945312 216.261719 C 806.730469 217.035156 806.480469 217.796875 806.191406 218.542969 C 805.902344 219.292969 805.582031 220.023438 805.222656 220.742188 C 804.863281 221.457031 804.46875 222.152344 804.039062 222.832031 C 803.613281 223.511719 803.152344 224.164062 802.664062 224.796875 C 802.171875 225.433594 801.648438 226.039062 801.097656 226.621094 C 800.546875 227.203125 799.96875 227.757812 799.367188 228.285156 C 798.761719 228.808594 798.132812 229.304688 797.476562 229.769531 C 796.824219 230.234375 796.152344 230.664062 795.457031 231.0625 C 794.761719 231.460938 794.046875 231.824219 793.316406 232.152344 L 632.554688 303.707031 L 793.359375 375.578125 C 794.628906 376.148438 795.84375 376.820312 796.996094 377.597656 C 798.152344 378.375 799.234375 379.246094 800.238281 380.207031 C 801.246094 381.167969 802.164062 382.207031 802.996094 383.324219 C 803.824219 384.441406 804.554688 385.621094 805.183594 386.863281 C 805.8125 388.101562 806.332031 389.390625 806.742188 390.71875 C 807.152344 392.050781 807.445312 393.40625 807.625 394.785156 C 807.804688 396.164062 807.867188 397.550781 807.808594 398.941406 C 807.753906 400.332031 807.582031 401.707031 807.289062 403.070312 C 807 404.429688 806.59375 405.757812 806.078125 407.050781 C 805.5625 408.34375 804.941406 409.582031 804.210938 410.769531 C 803.484375 411.953125 802.660156 413.070312 801.742188 414.117188 C 800.824219 415.164062 799.828125 416.125 798.746094 417 C 797.664062 417.878906 796.515625 418.65625 795.300781 419.335938 C 794.089844 420.019531 792.824219 420.589844 791.511719 421.058594 C 790.203125 421.523438 788.859375 421.875 787.488281 422.113281 C 786.117188 422.347656 784.734375 422.46875 783.34375 422.472656 Z M 495.824219 764.296875 C 263.914062 764.296875 61.109375 608.117188 2.804688 384.515625 C 2.601562 383.738281 2.4375 382.949219 2.3125 382.15625 C 2.1875 381.359375 2.101562 380.558594 2.054688 379.757812 C 2.011719 378.953125 2.003906 378.148438 2.035156 377.34375 C 2.066406 376.542969 2.140625 375.742188 2.25 374.945312 C 2.363281 374.148438 2.511719 373.355469 2.703125 372.574219 C 2.890625 371.792969 3.117188 371.019531 3.382812 370.261719 C 3.644531 369.5 3.949219 368.753906 4.285156 368.023438 C 4.621094 367.292969 4.996094 366.582031 5.402344 365.890625 C 5.8125 365.195312 6.253906 364.523438 6.726562 363.871094 C 7.199219 363.222656 7.703125 362.597656 8.238281 361.996094 C 8.773438 361.394531 9.339844 360.820312 9.929688 360.273438 C 10.523438 359.730469 11.136719 359.214844 11.78125 358.730469 C 12.421875 358.246094 13.085938 357.792969 13.773438 357.371094 C 14.460938 356.953125 15.167969 356.566406 15.890625 356.21875 C 16.617188 355.867188 17.355469 355.554688 18.109375 355.273438 C 18.867188 354.996094 19.632812 354.757812 20.414062 354.554688 C 21.191406 354.351562 21.976562 354.191406 22.773438 354.066406 C 23.570312 353.941406 24.367188 353.855469 25.171875 353.808594 C 25.972656 353.761719 26.777344 353.753906 27.582031 353.785156 C 28.386719 353.820312 29.1875 353.890625 29.984375 354.003906 C 30.78125 354.113281 31.570312 354.261719 32.351562 354.453125 C 33.136719 354.640625 33.90625 354.867188 34.667969 355.132812 C 35.425781 355.398438 36.171875 355.699219 36.902344 356.035156 C 37.632812 356.375 38.34375 356.746094 39.039062 357.15625 C 39.734375 357.5625 40.40625 358.003906 41.054688 358.476562 C 41.707031 358.949219 42.332031 359.457031 42.933594 359.992188 C 43.535156 360.527344 44.105469 361.089844 44.652344 361.679688 C 45.199219 362.273438 45.714844 362.890625 46.199219 363.53125 C 46.683594 364.175781 47.136719 364.839844 47.554688 365.523438 C 47.976562 366.210938 48.359375 366.917969 48.710938 367.640625 C 49.0625 368.367188 49.375 369.105469 49.652344 369.863281 C 49.929688 370.617188 50.171875 371.382812 50.371094 372.164062 C 51.972656 378.257812 53.699219 384.320312 55.550781 390.34375 C 57.402344 396.367188 59.375 402.351562 61.472656 408.292969 C 63.570312 414.238281 65.789062 420.136719 68.125 425.988281 C 70.464844 431.839844 72.921875 437.640625 75.5 443.390625 C 78.078125 449.144531 80.773438 454.839844 83.585938 460.480469 C 86.394531 466.121094 89.324219 471.699219 92.363281 477.21875 C 95.402344 482.742188 98.558594 488.195312 101.824219 493.585938 C 105.085938 498.976562 108.460938 504.296875 111.945312 509.550781 C 115.429688 514.800781 119.019531 519.980469 122.714844 525.085938 C 126.414062 530.1875 130.210938 535.214844 134.117188 540.164062 C 138.019531 545.109375 142.023438 549.976562 146.125 554.761719 C 150.230469 559.542969 154.429688 564.242188 158.722656 568.851562 C 163.019531 573.464844 167.410156 577.984375 171.890625 582.414062 C 176.375 586.84375 180.945312 591.183594 185.605469 595.425781 C 190.265625 599.667969 195.011719 603.8125 199.839844 607.859375 C 204.671875 611.910156 209.582031 615.855469 214.574219 619.703125 C 219.570312 623.546875 224.636719 627.289062 229.785156 630.925781 C 234.933594 634.5625 240.152344 638.09375 245.441406 641.515625 C 250.734375 644.941406 256.09375 648.253906 261.523438 651.457031 C 266.949219 654.660156 272.441406 657.75 277.996094 660.726562 C 283.550781 663.703125 289.164062 666.566406 294.835938 669.3125 C 300.507812 672.058594 306.234375 674.6875 312.015625 677.199219 C 317.796875 679.707031 323.625 682.101562 329.503906 684.371094 C 335.382812 686.644531 341.304688 688.792969 347.273438 690.820312 C 353.238281 692.847656 359.246094 694.753906 365.292969 696.535156 C 371.335938 698.316406 377.414062 699.972656 383.53125 701.503906 C 389.644531 703.035156 395.785156 704.441406 401.957031 705.71875 C 408.128906 707 414.320312 708.148438 420.539062 709.175781 C 426.757812 710.199219 432.996094 711.09375 439.25 711.863281 C 445.507812 712.628906 451.773438 713.269531 458.054688 713.78125 C 464.339844 714.289062 470.628906 714.671875 476.925781 714.925781 C 483.222656 715.175781 489.523438 715.296875 495.824219 715.292969 C 496.667969 715.21875 497.515625 715.191406 498.363281 715.207031 C 499.214844 715.222656 500.058594 715.28125 500.902344 715.382812 C 501.742188 715.484375 502.578125 715.632812 503.40625 715.820312 C 504.234375 716.011719 505.046875 716.242188 505.851562 716.515625 C 506.65625 716.789062 507.441406 717.105469 508.210938 717.460938 C 508.984375 717.816406 509.734375 718.210938 510.460938 718.640625 C 511.191406 719.074219 511.898438 719.542969 512.578125 720.050781 C 513.261719 720.558594 513.914062 721.097656 514.539062 721.671875 C 515.164062 722.246094 515.757812 722.847656 516.320312 723.484375 C 516.882812 724.121094 517.410156 724.78125 517.90625 725.472656 C 518.398438 726.164062 518.855469 726.878906 519.273438 727.613281 C 519.695312 728.351562 520.074219 729.109375 520.417969 729.886719 C 520.757812 730.664062 521.058594 731.457031 521.316406 732.261719 C 521.578125 733.070312 521.792969 733.890625 521.96875 734.722656 C 522.144531 735.550781 522.273438 736.390625 522.363281 737.234375 C 522.449219 738.078125 522.492188 738.921875 522.492188 739.773438 C 522.492188 740.621094 522.449219 741.464844 522.363281 742.3125 C 522.273438 743.15625 522.144531 743.992188 521.96875 744.824219 C 521.792969 745.652344 521.578125 746.472656 521.316406 747.28125 C 521.058594 748.089844 520.757812 748.878906 520.417969 749.65625 C 520.074219 750.433594 519.695312 751.191406 519.273438 751.929688 C 518.855469 752.667969 518.398438 753.378906 517.902344 754.070312 C 517.410156 754.761719 516.882812 755.421875 516.320312 756.058594 C 515.757812 756.695312 515.164062 757.296875 514.539062 757.871094 C 513.914062 758.445312 513.261719 758.988281 512.578125 759.492188 C 511.898438 760 511.191406 760.46875 510.460938 760.902344 C 509.734375 761.335938 508.984375 761.730469 508.210938 762.082031 C 507.441406 762.4375 506.65625 762.753906 505.851562 763.027344 C 505.046875 763.300781 504.234375 763.53125 503.40625 763.722656 C 502.578125 763.910156 501.742188 764.058594 500.902344 764.160156 C 500.058594 764.265625 499.214844 764.324219 498.363281 764.339844 C 497.515625 764.351562 496.667969 764.324219 495.824219 764.253906 Z M 411.152344 560.730469 C 410.351562 560.730469 409.546875 560.691406 408.75 560.609375 C 407.949219 560.53125 407.152344 560.414062 406.367188 560.257812 C 405.578125 560.101562 404.796875 559.90625 404.03125 559.671875 C 403.261719 559.441406 402.503906 559.171875 401.761719 558.863281 C 401.019531 558.554688 400.292969 558.210938 399.582031 557.835938 C 398.875 557.457031 398.1875 557.042969 397.515625 556.597656 C 396.847656 556.152344 396.203125 555.671875 395.582031 555.164062 C 394.960938 554.65625 394.363281 554.117188 393.796875 553.546875 C 393.226562 552.980469 392.6875 552.386719 392.175781 551.765625 C 391.667969 551.144531 391.1875 550.5 390.738281 549.832031 C 390.292969 549.164062 389.878906 548.476562 389.5 547.769531 C 389.121094 547.058594 388.777344 546.335938 388.464844 545.59375 C 388.160156 544.851562 387.886719 544.09375 387.652344 543.324219 C 387.417969 542.558594 387.222656 541.777344 387.0625 540.992188 C 386.90625 540.203125 386.785156 539.410156 386.707031 538.609375 C 386.625 537.808594 386.585938 537.007812 386.582031 536.203125 L 386.582031 70.226562 C 386.585938 69.421875 386.625 68.617188 386.703125 67.816406 C 386.785156 67.019531 386.902344 66.222656 387.058594 65.433594 C 387.21875 64.644531 387.414062 63.867188 387.648438 63.097656 C 387.882812 62.328125 388.152344 61.570312 388.460938 60.828125 C 388.769531 60.085938 389.113281 59.359375 389.492188 58.652344 C 389.871094 57.941406 390.285156 57.253906 390.734375 56.585938 C 391.179688 55.917969 391.660156 55.273438 392.167969 54.652344 C 392.679688 54.03125 393.21875 53.433594 393.789062 52.867188 C 394.355469 52.296875 394.953125 51.757812 395.574219 51.25 C 396.195312 50.738281 396.84375 50.261719 397.511719 49.8125 C 398.179688 49.367188 398.867188 48.957031 399.578125 48.578125 C 400.289062 48.199219 401.011719 47.855469 401.757812 47.546875 C 402.5 47.238281 403.257812 46.96875 404.027344 46.734375 C 404.796875 46.5 405.574219 46.308594 406.363281 46.148438 C 407.152344 45.992188 407.945312 45.875 408.746094 45.796875 C 409.546875 45.71875 410.347656 45.679688 411.152344 45.679688 C 411.957031 45.679688 412.761719 45.71875 413.558594 45.796875 C 414.359375 45.875 415.15625 45.992188 415.945312 46.148438 C 416.734375 46.308594 417.511719 46.5 418.28125 46.734375 C 419.050781 46.96875 419.808594 47.238281 420.550781 47.546875 C 421.292969 47.855469 422.019531 48.199219 422.730469 48.578125 C 423.4375 48.957031 424.128906 49.367188 424.796875 49.8125 C 425.464844 50.261719 426.109375 50.738281 426.734375 51.25 C 427.355469 51.757812 427.949219 52.296875 428.519531 52.867188 C 429.085938 53.433594 429.628906 54.03125 430.136719 54.652344 C 430.648438 55.273438 431.128906 55.917969 431.574219 56.585938 C 432.023438 57.253906 432.433594 57.941406 432.816406 58.652344 C 433.195312 59.359375 433.539062 60.085938 433.847656 60.828125 C 434.15625 61.570312 434.425781 62.328125 434.660156 63.097656 C 434.894531 63.867188 435.089844 64.644531 435.246094 65.433594 C 435.40625 66.222656 435.523438 67.019531 435.601562 67.816406 C 435.683594 68.617188 435.722656 69.421875 435.722656 70.226562 L 435.722656 536.160156 C 435.722656 536.960938 435.679688 537.765625 435.601562 538.5625 C 435.519531 539.363281 435.402344 540.15625 435.242188 540.945312 C 435.085938 541.734375 434.890625 542.511719 434.65625 543.28125 C 434.421875 544.050781 434.148438 544.804688 433.839844 545.546875 C 433.53125 546.289062 433.1875 547.015625 432.808594 547.722656 C 432.429688 548.433594 432.015625 549.121094 431.566406 549.789062 C 431.121094 550.457031 430.640625 551.101562 430.128906 551.71875 C 429.621094 552.339844 429.082031 552.9375 428.511719 553.503906 C 427.941406 554.070312 427.347656 554.609375 426.726562 555.121094 C 426.105469 555.628906 425.457031 556.105469 424.789062 556.550781 C 424.121094 557 423.433594 557.410156 422.722656 557.789062 C 422.015625 558.167969 421.289062 558.511719 420.546875 558.816406 C 419.804688 559.125 419.046875 559.394531 418.277344 559.628906 C 417.507812 559.863281 416.730469 560.054688 415.941406 560.214844 C 415.152344 560.371094 414.359375 560.488281 413.558594 560.566406 C 412.757812 560.644531 411.957031 560.683594 411.152344 560.683594 Z M 411.152344 560.730469 " fill-opacity="1" fill-rule="nonzero"/></g></svg>