<svg xmlns="http://www.w3.org/2000/svg" xmlns:xlink="http://www.w3.org/1999/xlink" width="1080" zoomAndPan="magnify" viewBox="0 0 810 809.999993" height="1080" preserveAspectRatio="xMidYMid meet" version="1.0"><path fill="#ffffff" d="M 184.578125 772.03125 L 24.097656 772.03125 L 24.097656 256.011719 L 184.578125 256.011719 Z M 103.476562 187.007812 C 53.410156 187.007812 12 143.824219 12 92.085938 C 12 42.019531 53.410156 0.609375 103.476562 0.609375 C 155.214844 0.609375 196.628906 42.019531 196.628906 92.085938 C 196.628906 143.824219 155.214844 187.007812 103.476562 187.007812 Z M 624.660156 772.03125 L 624.660156 521.792969 C 624.660156 461.394531 622.941406 385.457031 540.117188 385.457031 C 457.246094 385.457031 445.195312 449.296875 445.195312 516.578125 L 445.195312 772.03125 L 284.714844 772.03125 L 284.714844 256.011719 L 438.261719 256.011719 L 438.261719 326.785156 L 439.980469 326.785156 C 462.410156 287.09375 514.199219 243.960938 591.855469 243.960938 C 754.109375 243.960938 785.144531 350.933594 785.144531 488.988281 L 785.144531 772.03125 Z M 624.660156 772.03125 " fill-opacity="1" fill-rule="nonzero"/></svg>