<svg xmlns="http://www.w3.org/2000/svg" xmlns:xlink="http://www.w3.org/1999/xlink" width="1080" zoomAndPan="magnify" viewBox="0 0 810 809.999993" height="1080" preserveAspectRatio="xMidYMid meet" version="1.0"><path fill="#ffffff" d="M 278.882812 629.941406 C 278.882812 632.910156 275.914062 634.4375 271.464844 634.4375 C 266.96875 635.875 264 632.910156 264 629.941406 C 264 626.972656 267.011719 624.007812 271.464844 624.007812 C 275.914062 624.007812 278.882812 626.972656 278.882812 629.941406 Z M 232.84375 622.523438 C 234.328125 619.554688 238.777344 618.070312 243.183594 619.554688 C 247.679688 621.039062 249.164062 624.050781 249.164062 626.972656 C 248.945312 627.34375 248.699219 627.6875 248.417969 628.011719 C 248.140625 628.335938 247.832031 628.632812 247.5 628.902344 C 247.167969 629.167969 246.8125 629.40625 246.4375 629.613281 C 246.0625 629.816406 245.671875 629.988281 245.269531 630.121094 C 244.863281 630.257812 244.449219 630.355469 244.023438 630.417969 C 243.601562 630.476562 243.175781 630.5 242.75 630.484375 C 242.320312 630.46875 241.898438 630.414062 241.480469 630.324219 C 241.0625 630.234375 240.65625 630.105469 240.261719 629.941406 C 235.765625 629.941406 232.84375 625.488281 232.84375 622.523438 Z M 299.65625 621.039062 C 302.621094 619.554688 307.117188 622.523438 307.117188 625.535156 C 308.601562 628.457031 305.589844 629.941406 301.140625 631.425781 C 296.6875 632.910156 292.238281 631.425781 292.238281 628.457031 C 292.238281 624.007812 295.203125 621.039062 299.65625 621.039062 Z M 396.234375 50.703125 C 602.695312 50.703125 770.535156 208.15625 770.535156 413.09375 C 770.535156 578.011719 669.507812 719.097656 521 768.152344 C 501.667969 772.605469 494.25 760.6875 494.25 750.300781 C 494.25 738.433594 495.730469 676.027344 495.730469 627.019531 C 495.730469 591.363281 483.863281 569.109375 470.464844 557.195312 C 553.640625 548.292969 641.316406 536.421875 641.316406 393.804688 C 641.316406 352.214844 626.480469 332.925781 602.648438 306.175781 C 605.664062 295.832031 619.015625 257.167969 598.242188 205.191406 C 567.039062 194.804688 495.730469 245.296875 495.730469 245.296875 C 466.058594 236.394531 434.855469 233.425781 402.167969 233.425781 C 370.964844 233.425781 339.761719 236.394531 310.085938 245.296875 C 310.085938 245.296875 237.25 196.289062 207.574219 205.191406 C 186.800781 257.074219 198.671875 295.742188 203.125 306.085938 C 179.339844 332.835938 167.46875 352.125 167.46875 393.757812 C 167.46875 536.332031 252.132812 548.203125 335.308594 557.105469 C 323.441406 567.535156 314.539062 583.855469 311.570312 607.640625 C 289.269531 618.027344 235.808594 634.347656 203.125 576.4375 C 201.605469 573.84375 199.945312 571.34375 198.140625 568.941406 C 196.339844 566.535156 194.40625 564.242188 192.34375 562.054688 C 190.28125 559.871094 188.105469 557.808594 185.808594 555.867188 C 183.511719 553.929688 181.113281 552.125 178.613281 550.457031 C 176.113281 548.792969 173.527344 547.269531 170.855469 545.894531 C 168.183594 544.523438 165.441406 543.304688 162.632812 542.238281 C 159.820312 541.175781 156.960938 540.273438 154.046875 539.535156 C 151.136719 538.792969 148.191406 538.222656 145.214844 537.816406 C 109.558594 537.816406 143.683594 561.601562 143.683594 561.601562 C 167.515625 571.941406 183.789062 615.058594 183.789062 615.058594 C 206.089844 681.871094 310.085938 659.617188 310.085938 659.617188 L 310.085938 751.695312 C 310.085938 760.597656 304.105469 772.511719 284.816406 769.546875 C 136.265625 719.054688 33.796875 577.964844 33.796875 413.046875 C 33.796875 208.113281 191.253906 50.660156 396.1875 50.660156 Z M 177.855469 563.128906 C 179.339844 561.644531 182.351562 563.128906 185.320312 564.613281 C 188.285156 567.578125 188.285156 572.03125 186.800781 573.515625 C 183.789062 575 180.824219 573.515625 177.855469 572.03125 C 176.371094 569.0625 174.886719 564.613281 177.855469 563.128906 Z M 161.535156 551.214844 C 163.019531 549.730469 164.5 549.730469 167.46875 551.214844 C 170.4375 552.699219 171.964844 554.179688 171.964844 555.710938 C 170.4375 558.675781 167.46875 558.675781 164.5 557.148438 C 161.535156 555.664062 160.003906 554.179688 161.535156 551.214844 Z M 209.058594 604.71875 C 212.027344 601.75 216.476562 603.234375 219.445312 606.203125 C 222.410156 609.167969 222.410156 613.621094 220.929688 615.105469 C 219.445312 618.070312 214.992188 616.585938 212.027344 613.621094 C 207.574219 610.652344 207.574219 606.203125 209.058594 604.71875 Z M 192.738281 582.417969 C 195.703125 580.933594 198.671875 582.417969 201.640625 585.382812 C 203.125 588.351562 203.125 592.804688 201.640625 594.285156 C 198.671875 595.769531 195.703125 594.285156 192.738281 591.320312 C 189.769531 588.351562 189.769531 583.902344 192.738281 582.417969 Z M 192.738281 582.417969 " fill-opacity="1" fill-rule="nonzero"/></svg>